<svg width="360" height="235" viewBox="0 0 360 235" fill="none" xmlns="http://www.w3.org/2000/svg">
<circle cx="107.5" cy="83" r="49" fill="#F3F9FF"/>
<circle cx="243.477" cy="189.866" r="34.7701" fill="#F3F9FF"/>
<g opacity="0.5" clip-path="url(#clip0_9789_457948)">
<path d="M132.107 21.8929H129.071C128.973 21.8929 128.893 21.9728 128.893 22.0714V25.1071C128.893 25.6002 128.493 26 128 26C127.507 26 127.107 25.6002 127.107 25.1071V22.0714C127.107 21.9728 127.027 21.8929 126.929 21.8929H123.893C123.4 21.8929 123 21.4931 123 21C123 20.5069 123.4 20.1071 123.893 20.1071H126.929C127.027 20.1071 127.107 20.0272 127.107 19.9286V16.8929C127.107 16.3998 127.507 16 128 16C128.493 16 128.893 16.3998 128.893 16.8929V19.9286C128.893 20.0272 128.973 20.1071 129.071 20.1071H132.107C132.6 20.1071 133 20.5069 133 21C133 21.4931 132.6 21.8929 132.107 21.8929Z" fill="#393F52"/>
</g>
<g opacity="0.5" clip-path="url(#clip1_9789_457948)">
<path d="M295.107 169.979H292.071C291.973 169.979 291.893 170.059 291.893 170.157V173.193C291.893 173.686 291.493 174.086 291 174.086C290.507 174.086 290.107 173.686 290.107 173.193V170.157C290.107 170.059 290.027 169.979 289.929 169.979H286.893C286.4 169.979 286 169.579 286 169.086C286 168.593 286.4 168.193 286.893 168.193H289.929C290.027 168.193 290.107 168.113 290.107 168.015V164.979C290.107 164.486 290.507 164.086 291 164.086C291.493 164.086 291.893 164.486 291.893 164.979V168.015C291.893 168.113 291.973 168.193 292.071 168.193H295.107C295.6 168.193 296 168.593 296 169.086C296 169.579 295.6 169.979 295.107 169.979Z" fill="#393F52"/>
</g>
<g opacity="0.5" clip-path="url(#clip2_9789_457948)">
<path d="M51.1071 192.549H48.0714C47.9728 192.549 47.8929 192.629 47.8929 192.728V195.763C47.8929 196.256 47.4931 196.656 47 196.656C46.5069 196.656 46.1071 196.256 46.1071 195.763V192.728C46.1071 192.629 46.0272 192.549 45.9286 192.549H42.8929C42.3998 192.549 42 192.149 42 191.656C42 191.163 42.3998 190.763 42.8929 190.763H45.9286C46.0272 190.763 46.1071 190.683 46.1071 190.585V187.549C46.1071 187.056 46.5069 186.656 47 186.656C47.4931 186.656 47.8929 187.056 47.8929 187.549V190.585C47.8929 190.683 47.9728 190.763 48.0714 190.763H51.1071C51.6002 190.763 52 191.163 52 191.656C52 192.149 51.6002 192.549 51.1071 192.549Z" fill="#393F52"/>
</g>
<g opacity="0.5" clip-path="url(#clip3_9789_457948)">
<path d="M288.464 104.536H286.643C286.584 104.536 286.536 104.584 286.536 104.643V106.464C286.536 106.76 286.296 107 286 107C285.704 107 285.464 106.76 285.464 106.464V104.643C285.464 104.584 285.416 104.536 285.357 104.536H283.536C283.24 104.536 283 104.296 283 104C283 103.704 283.24 103.464 283.536 103.464H285.357C285.416 103.464 285.464 103.416 285.464 103.357V101.536C285.464 101.24 285.704 101 286 101C286.296 101 286.536 101.24 286.536 101.536V103.357C286.536 103.416 286.584 103.464 286.643 103.464H288.464C288.76 103.464 289 103.704 289 104C289 104.296 288.76 104.536 288.464 104.536Z" fill="#393F52"/>
</g>
<g opacity="0.5" clip-path="url(#clip4_9789_457948)">
<path d="M144.375 59.125H142.25C142.181 59.125 142.125 59.181 142.125 59.25V61.375C142.125 61.7202 141.845 62 141.5 62C141.155 62 140.875 61.7202 140.875 61.375V59.25C140.875 59.181 140.819 59.125 140.75 59.125H138.625C138.28 59.125 138 58.8452 138 58.5C138 58.1548 138.28 57.875 138.625 57.875H140.75C140.819 57.875 140.875 57.819 140.875 57.75V55.625C140.875 55.2798 141.155 55 141.5 55C141.845 55 142.125 55.2798 142.125 55.625V57.75C142.125 57.819 142.181 57.875 142.25 57.875H144.375C144.72 57.875 145 58.1548 145 58.5C145 58.8452 144.72 59.125 144.375 59.125Z" fill="#393F52"/>
</g>
<g opacity="0.5" clip-path="url(#clip5_9789_457948)">
<path d="M61.375 48.125H59.25C59.181 48.125 59.125 48.181 59.125 48.25V50.375C59.125 50.7202 58.8452 51 58.5 51C58.1548 51 57.875 50.7202 57.875 50.375V48.25C57.875 48.181 57.819 48.125 57.75 48.125H55.625C55.2798 48.125 55 47.8452 55 47.5C55 47.1548 55.2798 46.875 55.625 46.875H57.75C57.819 46.875 57.875 46.819 57.875 46.75V44.625C57.875 44.2798 58.1548 44 58.5 44C58.8452 44 59.125 44.2798 59.125 44.625V46.75C59.125 46.819 59.181 46.875 59.25 46.875H61.375C61.7202 46.875 62 47.1548 62 47.5C62 47.8452 61.7202 48.125 61.375 48.125Z" fill="#393F52"/>
</g>
<ellipse cx="184.185" cy="209.44" rx="66.2336" ry="13" transform="rotate(0.704149 184.185 209.44)" fill="#393F52"/>
<path d="M257.427 82.3499C257.625 73.814 225.736 66.1524 186.201 65.2372C146.667 64.3219 114.457 70.4997 114.26 79.0356C114.062 87.5715 145.951 95.2331 185.486 96.1483C225.02 97.0636 257.23 90.8858 257.427 82.3499Z" fill="#393F52"/>
<path d="M255.769 86.5032C255.967 77.9673 224.078 70.3057 184.543 69.3905C145.008 68.4753 112.799 74.653 112.601 83.1889C112.404 91.7248 144.293 99.3865 183.827 100.302C223.362 101.217 255.571 95.0391 255.769 86.5032Z" fill="#E9EEF2"/>
<path opacity="0.5" d="M179.874 73.0996C187.389 71.7655 223.349 74.5632 240.045 79.783" stroke="#393F52" stroke-linecap="round"/>
<path d="M257.112 86.0941C257.063 88.1028 255.726 90.0112 253.308 91.7738C243.624 98.7895 216.565 103.395 184.816 102.656C153.067 101.917 126.256 96.0832 116.904 88.6232C114.561 86.7614 113.314 84.7834 113.363 82.7747C113.424 80.421 115.231 78.2006 118.519 76.1982C122.503 84.7229 150.711 91.8838 185.063 92.6795C219.415 93.4753 247.925 87.6102 252.288 79.2865C255.473 81.4326 257.192 83.7273 257.128 86.097L257.112 86.0941Z" fill="white"/>
<path d="M184.816 103.02C153.741 102.303 126.372 96.633 116.686 88.9143C114.2 86.9275 112.952 84.8665 112.999 82.7748C113.059 80.3382 114.848 78.0319 118.325 75.8983L118.66 75.6941L118.826 76.0549C122.797 84.5607 151.267 91.5539 185.044 92.3285C218.82 93.1031 247.576 87.4313 251.937 79.1237L252.119 78.7596L252.458 78.9862C255.834 81.2659 257.519 83.6539 257.459 86.0905C257.412 88.1822 256.074 90.1895 253.505 92.0572C243.477 99.3251 215.859 103.731 184.8 103.017L184.816 103.02ZM118.376 76.7177C115.332 78.6485 113.774 80.6823 113.724 82.79C113.685 84.6517 114.821 86.5105 117.135 88.3504C126.704 95.982 153.903 101.588 184.829 102.311C215.757 103.018 243.181 98.6762 253.095 91.4871C255.489 89.7696 256.712 87.94 256.764 86.0972C256.813 83.9895 255.341 81.888 252.407 79.8203C247.328 88.1637 218.623 93.8282 185.06 93.0591C151.498 92.2901 123.079 85.2896 118.389 76.7366L118.376 76.7177Z" fill="#393F52"/>
<g opacity="0.3">
<path opacity="0.3" d="M257.111 86.0942C257.062 88.1029 255.726 90.0112 253.307 91.7739C248.684 95.1228 240.073 97.9336 228.893 99.8668L229.158 99.6831C231.592 97.9234 232.929 96.015 232.961 94.0034C233.005 92.3906 232.202 90.7905 230.66 89.2553C242.209 86.8427 250.13 83.3618 252.272 79.2837C255.456 81.4297 257.175 83.7245 257.111 86.0942Z" fill="#393F52"/>
</g>
<path d="M253.307 91.7738L232.142 200.649C231.601 204.007 228.249 207.007 222.796 209.363C218.528 211.205 212.972 212.665 206.517 213.616C202.372 214.224 197.834 214.628 193.008 214.798C190.277 214.901 187.465 214.905 184.566 214.845C181.139 214.772 177.787 214.563 174.58 214.282C169.783 213.829 165.26 213.145 161.133 212.284C154.599 210.922 149.077 209.081 145.034 206.929C141.214 204.916 138.719 202.614 137.949 200.193L137.955 200.161L137.704 198.892L116.903 88.6231C121.181 92.0414 129.094 95.1074 139.475 97.5112C145.778 98.9635 152.983 100.182 160.826 101.069C165.637 101.624 170.689 102.04 175.913 102.322C178.827 102.484 181.798 102.607 184.812 102.672C188.913 102.768 192.929 102.782 196.847 102.695C202.108 102.587 207.163 102.342 211.979 101.955C219.966 101.314 227.26 100.3 233.531 99.0009C242.465 97.1417 249.327 94.6765 253.304 91.7898L253.307 91.7738Z" fill="white"/>
<path fill-rule="evenodd" clip-rule="evenodd" d="M190.329 182.971C190.085 182.971 189.897 182.761 189.931 182.516L189.931 182.461C189.996 181.452 189.653 180.865 188.52 180.865L185.012 180.865L184.08 185.122L189.098 185.122C189.353 185.122 189.554 185.366 189.486 185.609L188.999 187.805C188.954 187.993 188.798 188.115 188.609 188.115L183.415 188.115C183.415 188.115 182.837 190.732 182.814 190.844C182.627 191.685 183.203 192.118 183.58 192.306C183.603 192.317 183.625 192.328 183.637 192.328C183.802 192.406 183.891 192.583 183.858 192.761L183.593 193.958C183.548 194.147 183.392 194.269 183.203 194.269L177.098 194.269C176.843 194.269 176.655 194.036 176.709 193.781L179.373 181.74C179.64 180.676 179.019 180.243 178.574 180.077C178.563 180.066 178.541 180.066 178.53 180.066C178.33 179.999 178.219 179.789 178.263 179.578L178.496 178.514C178.541 178.314 178.718 178.17 178.929 178.17L192.505 178.17C192.761 178.17 192.949 178.414 192.895 178.658L192.018 182.605C191.972 182.793 191.817 182.915 191.628 182.915L190.329 182.915" fill="#393F52"/>
<path fill-rule="evenodd" clip-rule="evenodd" d="M169.916 178.559C169.96 178.358 170.139 178.214 170.337 178.214L176.977 178.214C177.231 178.214 177.431 178.458 177.375 178.702L177.153 179.722C177.121 179.899 176.977 180.021 176.799 180.033L176.755 180.033C176.254 180.099 175.356 180.266 174.611 180.842L169.094 185.421L173.346 191.164C174.167 192.217 174.579 192.418 175.4 192.428C175.666 192.428 175.867 192.683 175.81 192.949L175.577 193.98C175.532 194.157 175.377 194.29 175.188 194.29L171.858 194.29C168.196 194.29 167.185 192.683 164.132 187.117L163.244 191.175C163.111 191.807 163.644 192.141 164.021 192.295C164.043 192.306 164.054 192.306 164.066 192.317C164.254 192.395 164.354 192.583 164.311 192.784L164.043 193.969C163.999 194.146 163.844 194.279 163.655 194.279L155.995 194.279C155.729 194.279 155.529 194.035 155.585 193.769L155.807 192.749C155.851 192.561 156.007 192.428 156.184 192.406L156.206 192.406C156.906 192.328 157.651 191.885 158.105 189.711L159.848 181.762C160.069 180.709 159.537 180.298 159.081 180.121C159.081 180.121 159.048 180.11 159.004 180.099C158.793 180.033 158.671 179.81 158.716 179.589L158.948 178.524C158.994 178.326 159.17 178.181 159.381 178.181L166.674 178.181C166.93 178.181 167.118 178.413 167.064 178.669L166.83 179.712C166.796 179.866 166.685 179.989 166.531 180.033C166.509 180.043 166.497 180.043 166.474 180.054C166.13 180.165 165.597 180.442 165.431 181.119L164.465 185.543L170.117 180.853C170.46 180.576 170.372 180.199 169.982 180.054C169.76 179.989 169.627 179.766 169.682 179.533L169.916 178.559Z" fill="#393F52"/>
<path fill-rule="evenodd" clip-rule="evenodd" d="M208.002 178.547C208.247 178.613 208.391 178.857 208.336 179.101L207.48 182.97C207.435 183.159 207.281 183.281 207.092 183.281L205.87 183.281C205.637 183.281 205.46 183.092 205.472 182.86L205.472 182.793C205.526 181.529 204.728 180.588 202.93 180.588C199.931 180.588 197.746 183.048 197.468 186.274C197.167 189.612 199.511 191.541 202.729 191.541C204.383 191.541 205.693 191.219 206.425 190.986C206.715 190.898 207.004 191.142 206.948 191.452L206.57 193.448C206.537 193.615 206.414 193.758 206.248 193.814C205.582 194.024 203.728 194.523 200.887 194.523C194.126 194.523 191.384 190.643 191.806 186.686C192.183 183.159 194.515 177.97 203.728 177.97C205.482 177.959 206.892 178.236 208.002 178.547Z" fill="#393F52"/>
<path d="M125.614 92.6164L136.535 160.916L139.205 161.965C141.032 162.663 144.195 163.505 148.664 163.849L146.873 98.4601C138.918 97.4537 131.821 94.2334 125.627 92.6353L125.614 92.6164Z" fill="#F73257"/>
<path d="M245.612 95.7029L231.435 163.401L228.717 164.322C226.858 164.932 223.659 165.621 219.178 165.75L224.097 100.523C232.091 99.898 239.334 97.021 245.598 95.7212L245.612 95.7029Z" fill="#F73257"/>
<path d="M176.923 101.732L194.386 102.107L193.054 164.195C193.044 164.681 192.685 165.09 192.204 165.16C186.003 166.06 182.276 165.985 176.391 164.826C175.918 164.732 175.581 164.31 175.591 163.828L176.923 101.732Z" fill="#F63257"/>
<g opacity="0.3">
<path opacity="0.3" d="M253.307 91.7741L232.142 200.649C231.601 204.008 228.249 207.007 222.796 209.363C218.528 211.205 212.972 212.666 206.517 213.617C202.372 214.224 197.834 214.628 193.008 214.799C190.277 214.901 187.465 214.906 184.566 214.845C181.353 214.778 178.212 214.591 175.184 214.325C179.649 214.139 183.853 213.757 187.727 213.184C194.182 212.233 199.738 210.772 204.006 208.93C209.459 206.574 212.809 203.591 213.352 200.216L233.003 99.0878C233.174 99.0527 233.362 99.0204 233.534 98.9853C242.468 97.126 249.33 94.6608 253.307 91.7741Z" fill="#393F52"/>
</g>
<path d="M184.781 104.584C153.393 103.861 125.635 98.0543 115.706 90.1263C112.813 87.8344 111.377 85.3427 111.437 82.7242C111.502 79.7097 113.551 76.9708 117.508 74.56C117.972 74.28 118.549 74.2022 119.065 74.3617C119.582 74.5212 120.027 74.8991 120.253 75.3864C123.472 82.2847 148.602 89.9151 185.094 90.7665C221.569 91.615 247.032 85.1335 250.58 78.3988C250.832 77.9153 251.276 77.5654 251.813 77.4309C252.35 77.2963 252.91 77.3975 253.366 77.7114C257.213 80.3078 259.131 83.1511 259.053 86.1467C258.996 88.7493 257.449 91.1819 254.447 93.3353C244.172 100.79 216.17 105.308 184.781 104.584ZM117.966 78.8926C116.563 79.9787 115.308 81.3397 115.288 82.8243C115.252 84.4881 116.799 86.0902 118.101 87.1192C127.278 94.4484 154.729 100.034 184.866 100.73C215.002 101.426 242.672 97.096 252.183 90.2144C253.534 89.2347 255.163 87.7262 255.201 86.0465C255.238 84.5647 254.055 83.1441 252.706 82.0075C244.527 91.1304 213.351 95.2739 185.013 94.6048C156.674 93.9358 125.728 88.3807 117.982 78.8955L117.966 78.8926Z" fill="#393F52"/>
<path d="M137.907 202.071C137.1 202.058 136.368 201.529 136.114 200.739C135.937 200.161 135.827 199.579 135.782 199.008C135.718 197.988 136.455 197.113 137.47 196.982C138.483 196.867 139.406 197.53 139.603 198.541L139.838 199.807C140.022 200.8 139.399 201.778 138.411 202.03C138.236 202.081 138.068 202.1 137.888 202.084L137.907 202.071Z" fill="#393F52"/>
<path d="M184.534 216.758C181.159 216.677 177.753 216.492 174.418 216.187C169.637 215.738 165.031 215.055 160.746 214.149C154.068 212.761 148.331 210.832 144.136 208.603C139.742 206.288 137.046 203.635 136.13 200.741C136.107 200.687 136.1 200.636 136.092 200.585C136.095 200.569 136.072 200.515 136.075 200.499L135.84 199.233C135.84 199.233 135.82 199.163 135.826 199.131L115.02 88.9777C114.865 88.1889 115.227 87.3778 115.912 86.9723C116.6 86.5508 117.482 86.6109 118.101 87.1196C122.09 90.3039 129.627 93.2525 139.896 95.636C146.215 97.0913 153.327 98.2763 161.023 99.1535C165.802 99.7023 170.854 100.118 176.014 100.389C183.088 100.773 190.177 100.896 196.801 100.752C201.996 100.649 207.034 100.401 211.834 100.011C219.688 99.3786 226.861 98.3919 233.131 97.0933C241.894 95.2692 248.476 92.8859 252.167 90.212C252.813 89.7498 253.661 89.7211 254.33 90.1395C254.999 90.5579 255.336 91.3464 255.178 92.1282L234.013 201.003C233.393 204.893 229.763 208.421 223.554 211.12C223.519 211.13 223.484 211.141 223.446 211.167C218.981 213.089 213.378 214.541 206.785 215.517C202.488 216.147 197.867 216.552 193.059 216.71C190.345 216.815 187.466 216.824 184.502 216.752L184.534 216.758ZM139.826 199.688C140.457 201.505 142.616 203.466 145.937 205.224C149.813 207.296 155.196 209.078 161.522 210.403C165.666 211.267 170.125 211.94 174.745 212.36C180.862 212.919 187.265 213.083 192.924 212.882C197.6 212.717 202.068 212.334 206.229 211.729C212.446 210.818 217.897 209.387 222.02 207.618C222.055 207.608 222.089 207.598 222.108 207.585C226.937 205.48 229.813 202.924 230.222 200.385L250.577 95.63C246.421 97.6742 240.773 99.4654 233.898 100.903C227.472 102.24 220.13 103.245 212.108 103.897C207.241 104.291 202.12 104.541 196.858 104.649C190.135 104.791 182.947 104.667 175.774 104.281C170.55 103.999 165.434 103.572 160.572 103.024C152.729 102.137 145.473 100.926 139.013 99.4288C130.854 97.542 124.255 95.2589 119.601 92.7318L139.609 198.508C139.609 198.508 139.614 198.575 139.624 198.61L139.829 199.672L139.826 199.688Z" fill="#393F52"/>
<path d="M208.707 14.7321C208.117 13.877 208.269 12.6246 209.047 11.9214C209.608 11.4139 210.397 11.2083 211.165 11.1368C211.649 11.0921 212.182 11.107 212.554 11.407C212.869 11.6612 212.999 12.0674 213.076 12.4558C213.29 13.5473 213.5 15.5803 212.079 15.9438C211.07 16.2011 209.261 15.5366 208.707 14.7321Z" fill="#D4771E"/>
<path d="M166.839 34.4274C166.249 33.5723 166.401 32.3199 167.179 31.6167C167.739 31.1092 168.529 30.9036 169.297 30.8321C169.781 30.7874 170.314 30.8023 170.685 31.1023C171.001 31.3565 171.131 31.7627 171.207 32.1511C171.422 33.2426 171.632 35.2756 170.211 35.6391C169.202 35.8964 167.393 35.2319 166.839 34.4274Z" fill="#EE8725"/>
<path d="M224.478 42.1958C225.742 41.1923 226.561 42.1494 226.561 42.1494C227.965 41.4497 228.838 43.2036 227.434 43.9033C227.434 43.9033 227.147 45.3019 225.715 44.9468C223.707 46.3353 222.471 43.5841 224.479 42.196L224.478 42.1958Z" fill="#C35314"/>
<path d="M260.367 58.0249C261.631 57.0214 262.449 57.9785 262.449 57.9785C263.854 57.2788 264.727 59.0327 263.323 59.7324C263.323 59.7324 263.036 61.131 261.604 60.7759C259.596 62.1644 258.359 59.4132 260.367 58.0251L260.367 58.0249Z" fill="#EE8725"/>
<path d="M187.241 53.8239C186.651 52.9688 186.803 51.7164 187.581 51.0132C188.142 50.5057 188.931 50.3001 189.699 50.2286C190.183 50.1839 190.716 50.1988 191.088 50.4987C191.403 50.753 191.533 51.1592 191.609 51.5476C191.824 52.6391 192.034 54.6721 190.613 55.0356C189.604 55.2928 187.795 54.6284 187.241 53.8239Z" fill="#B24912"/>
<line x1="1" y1="-1" x2="28" y2="-1" transform="matrix(1 8.74228e-08 8.74228e-08 -1 61 138)" stroke="#393F52" stroke-width="2" stroke-linecap="round"/>
<line x1="1" y1="-1" x2="6" y2="-1" transform="matrix(1 0 0 -1 94 138)" stroke="#393F52" stroke-width="2" stroke-linecap="round"/>
<line opacity="0.4" x1="1" y1="-1" x2="28" y2="-1" transform="matrix(1 8.74228e-08 8.74228e-08 -1 54 149)" stroke="#393F52" stroke-width="2" stroke-linecap="round"/>
<line opacity="0.1" x1="73" y1="165" x2="101" y2="165" stroke="#393F52" stroke-width="2" stroke-linecap="round"/>
<line opacity="0.4" x1="1" y1="-1" x2="6" y2="-1" transform="matrix(1 0 0 -1 87 149)" stroke="#393F52" stroke-width="2" stroke-linecap="round"/>
<defs>
<clipPath id="clip0_9789_457948">
<rect width="10" height="10" fill="white" transform="matrix(1 0 0 -1 123 26)"/>
</clipPath>
<clipPath id="clip1_9789_457948">
<rect width="10" height="10" fill="white" transform="matrix(1 0 0 -1 286 174.086)"/>
</clipPath>
<clipPath id="clip2_9789_457948">
<rect width="10" height="10" fill="white" transform="matrix(1 0 0 -1 42 196.656)"/>
</clipPath>
<clipPath id="clip3_9789_457948">
<rect width="6" height="6" fill="white" transform="matrix(1 0 0 -1 283 107)"/>
</clipPath>
<clipPath id="clip4_9789_457948">
<rect width="7" height="7" fill="white" transform="matrix(1 0 0 -1 138 62)"/>
</clipPath>
<clipPath id="clip5_9789_457948">
<rect width="7" height="7" fill="white" transform="matrix(1 0 0 -1 55 51)"/>
</clipPath>
</defs>
</svg>
